<svg width="16" height="16" viewBox="0 0 16 16" fill="none" xmlns="http://www.w3.org/2000/svg">
<path d="M15.6098 7.36842C15.4597 7.36842 14.8893 7.57895 14.5891 7.69925C14.5591 7.57895 14.439 7.48872 14.2889 7.48872C14.1388 7.48872 13.9887 7.57895 13.9887 7.69925L13.4184 7.60902C13.3283 6.37594 12.848 5.29323 12.0976 4.42105L12.4278 3.93985C12.5178 4 12.6979 4 12.788 3.8797C12.9081 3.7594 12.9381 3.60902 12.848 3.5188C13.1482 3.3985 13.7186 3.1579 13.8086 3.03759C13.9287 2.88722 13.8386 2.58647 13.6285 2.34586C13.3884 2.13534 13.0882 2.04511 12.9381 2.16541C12.818 2.25564 12.5779 2.82707 12.4578 3.12782C12.3677 3.06767 12.1876 3.09774 12.0976 3.18797C11.9775 3.30827 11.9475 3.45865 12.0375 3.54887L11.5572 3.8797C10.6867 3.12782 9.57599 2.64662 8.37524 2.55639L8.28518 1.98496C8.40525 1.95489 8.49531 1.83459 8.49531 1.68421C8.49531 1.53383 8.40525 1.41353 8.28518 1.38346C8.40525 1.08271 8.61539 0.511278 8.61539 0.360902C8.58537 0.150376 8.3152 0 7.98499 0C7.65478 0 7.38462 0.150376 7.3546 0.360902C7.3546 0.511278 7.56473 1.08271 7.6848 1.38346C7.56473 1.41353 7.47467 1.53383 7.47467 1.68421C7.47467 1.83459 7.56473 1.98496 7.6848 1.98496L7.59475 2.55639C6.36398 2.64662 5.2833 3.12782 4.41276 3.8797L3.93246 3.54887C3.9925 3.45865 3.9925 3.2782 3.87242 3.18797C3.75235 3.06767 3.60225 3.03759 3.5122 3.12782C3.39212 2.82707 3.15197 2.28571 3.0319 2.16541C2.8818 2.04511 2.58161 2.13534 2.37148 2.37594C2.13133 2.58647 2.04128 2.88722 2.16135 3.06767C2.25141 3.18797 2.82176 3.42857 3.12195 3.54887C3.06191 3.6391 3.09193 3.81955 3.18199 3.90977C3.30206 4.03008 3.45216 4.06015 3.54221 3.96993L3.87242 4.45113C3.12195 5.32331 2.64165 6.43609 2.55159 7.6391L1.98124 7.72932C1.95122 7.60902 1.83114 7.5188 1.68105 7.5188C1.53096 7.5188 1.41088 7.60902 1.38086 7.72932C1.08068 7.60902 0.510319 7.3985 0.360225 7.3985C0.150094 7.42857 0 7.69925 0 8.03008C0 8.3609 0.150094 8.63158 0.360225 8.66166C0.510319 8.66166 1.08068 8.45113 1.38086 8.33083C1.41088 8.45113 1.53096 8.54135 1.68105 8.54135C1.83114 8.54135 1.98124 8.45113 1.98124 8.33083L2.55159 8.42105C2.64165 9.65414 3.12195 10.7368 3.87242 11.609L3.57223 12.0602C3.48218 12 3.30206 12 3.21201 12.1203C3.09193 12.2406 3.06191 12.391 3.15197 12.4812C2.85178 12.6015 2.31144 12.8421 2.19137 12.9624C2.07129 13.1128 2.16135 13.4135 2.37148 13.6541C2.61163 13.8947 2.91182 13.985 3.06191 13.8346C3.18199 13.7444 3.42214 13.1729 3.54221 12.8722C3.63227 12.9323 3.81238 12.9023 3.90244 12.812C4.02251 12.6917 4.05253 12.5414 3.96248 12.4511L4.44278 12.1203C5.31332 12.8722 6.42402 13.3534 7.62477 13.4436L7.71482 14.015C7.59475 14.0451 7.50469 14.1654 7.50469 14.3158C7.50469 14.4662 7.59475 14.5865 7.71482 14.6165C7.59475 14.9173 7.38462 15.4887 7.38462 15.6391C7.41463 15.8496 7.6848 16 8.01501 16C8.34522 16 8.61539 15.8496 8.6454 15.6391C8.6454 15.4887 8.43527 14.9173 8.3152 14.6165C8.43527 14.5865 8.52533 14.4662 8.52533 14.3158C8.52533 14.1654 8.43527 14.015 8.3152 14.015L8.40525 13.4436C9.63602 13.3534 10.7167 12.8722 11.5872 12.1203L12.0675 12.4511C12.0075 12.5414 12.0075 12.7218 12.1276 12.812C12.2477 12.9323 12.3977 12.9624 12.4878 12.8722C12.6079 13.1729 12.848 13.7444 12.9681 13.8346C13.1182 13.9549 13.4184 13.8647 13.6585 13.6541C13.8987 13.4135 13.9887 13.1128 13.8386 12.9624C13.7486 12.8421 13.1782 12.6015 12.878 12.4812C12.9381 12.391 12.9081 12.2105 12.818 12.1203C12.6979 12 12.5478 11.9699 12.4578 12.0602L12.1276 11.5789C12.878 10.7068 13.3583 9.59399 13.4484 8.39098L14.0188 8.30075C14.0488 8.42105 14.1689 8.51128 14.3189 8.51128C14.469 8.51128 14.5891 8.42105 14.6191 8.30075C14.9193 8.42105 15.4897 8.63158 15.6398 8.63158C15.8499 8.6015 16 8.33083 16 8C15.94 7.69925 15.7899 7.3985 15.6098 7.36842ZM3.30206 8.21053C3.18199 8.21053 3.09193 8.1203 3.09193 8C3.09193 7.8797 3.18199 7.78947 3.30206 7.78947C3.42214 7.78947 3.5122 7.8797 3.5122 8C3.5122 8.1203 3.42214 8.21053 3.30206 8.21053ZM11.137 4.54135C11.227 4.45113 11.3471 4.45113 11.4371 4.54135C11.5272 4.63158 11.5272 4.75188 11.4371 4.84211C11.3471 4.93233 11.227 4.93233 11.137 4.84211C11.0769 4.75188 11.0769 4.63158 11.137 4.54135ZM7.98499 3.12782C8.10507 3.12782 8.19512 3.21805 8.19512 3.33835C8.19512 3.45865 8.10507 3.54887 7.98499 3.54887C7.86492 3.54887 7.77486 3.45865 7.77486 3.33835C7.77486 3.21805 7.86492 3.12782 7.98499 3.12782ZM4.53283 4.54135C4.62289 4.45113 4.74296 4.45113 4.83302 4.54135C4.92308 4.63158 4.92308 4.75188 4.83302 4.84211C4.74296 4.93233 4.62289 4.93233 4.53283 4.84211C4.4728 4.75188 4.4728 4.63158 4.53283 4.54135ZM5.07317 5.41353L5.31332 5.65414C5.37336 5.71429 5.4334 5.71429 5.49343 5.68421L5.82364 6.01504C5.73358 6.22556 5.82364 6.55639 6.09381 6.82707C6.394 7.12782 6.81426 7.21805 6.99437 7.03759C6.75422 7.2782 6.60413 7.60902 6.60413 7.96993V7.8797H5.4334C5.40338 7.8797 5.37336 7.84962 5.37336 7.78947C5.37336 7.72932 5.40338 7.69925 5.4334 7.69925H6.66417V7.66917C6.66417 7.57895 6.57411 7.48872 6.48405 7.48872H5.31332C5.25328 7.48872 5.10319 7.66917 5.01313 7.81955H4.65291C4.62289 7.7594 4.56285 7.69925 4.50281 7.69925H4.11257C4.17261 6.85714 4.50281 6.04511 5.07317 5.41353ZM4.83302 11.4586C4.74296 11.5489 4.62289 11.5489 4.53283 11.4586C4.44278 11.3684 4.44278 11.2481 4.53283 11.1579C4.62289 11.0677 4.74296 11.0677 4.83302 11.1579C4.92308 11.2481 4.92308 11.3684 4.83302 11.4586ZM5.07317 10.5865C4.50281 9.95489 4.14259 9.11278 4.08255 8.21053H4.4728C4.53283 8.21053 4.62289 8.15038 4.62289 8.09023H4.9531C5.04315 8.2406 5.19325 8.45113 5.25328 8.45113H6.42402C6.51407 8.45113 6.60413 8.39098 6.60413 8.30075V8.2406H5.4334C5.40338 8.2406 5.37336 8.21053 5.37336 8.15038C5.37336 8.09023 5.40338 8.06015 5.4334 8.06015H6.66417V7.96993C6.66417 8.33083 6.81426 8.66166 7.05441 8.90226C6.8743 8.72181 6.45403 8.81203 6.15385 9.11278C5.88368 9.38346 5.79362 9.71429 5.88368 9.92481L5.55347 10.2556C5.49343 10.2256 5.40338 10.2256 5.37336 10.2857L5.07317 10.5865ZM7.98499 12.9023C7.86492 12.9023 7.77486 12.812 7.77486 12.6917C7.77486 12.5714 7.86492 12.4812 7.98499 12.4812C8.10507 12.4812 8.19512 12.5714 8.19512 12.6917C8.19512 12.812 8.10507 12.9023 7.98499 12.9023ZM11.4371 11.4586C11.3471 11.5489 11.227 11.5489 11.137 11.4586C11.0469 11.3684 11.0469 11.2481 11.137 11.1579C11.227 11.0677 11.3471 11.0677 11.4371 11.1579C11.5272 11.2481 11.5272 11.3684 11.4371 11.4586ZM10.8968 10.5865L10.6567 10.3459C10.5966 10.2857 10.5366 10.2857 10.4765 10.3158L10.1463 9.98496C10.2364 9.77444 10.1463 9.44361 9.87617 9.17293C9.57599 8.87218 9.15572 8.78196 8.97561 8.96241C8.7955 9.14286 8.88555 9.56391 9.18574 9.86466C9.45591 10.1353 9.78612 10.2256 9.99625 10.1353L10.3265 10.4662C10.2964 10.5263 10.2964 10.6165 10.3565 10.6466L10.5966 10.8872C9.96623 11.4586 9.15572 11.8196 8.25516 11.8797V11.4887C8.25516 11.4286 8.19512 11.3383 8.13508 11.3383V10.9774C8.25516 10.8872 8.46529 10.7368 8.46529 10.6767V9.50376C8.46529 9.41354 8.37524 9.32331 8.28518 9.32331H8.25516V10.5564C8.25516 10.5865 8.22514 10.6165 8.1651 10.6165C8.10507 10.6165 8.07505 10.5865 8.07505 10.5564V9.35338H7.98499H7.89494V10.5564C7.89494 10.5865 7.86492 10.6165 7.80488 10.6165C7.74484 10.6165 7.71482 10.5865 7.71482 10.5564V9.35338H7.65478C7.56473 9.35338 7.50469 9.44361 7.50469 9.53384V10.7068C7.50469 10.7669 7.71482 10.9173 7.86492 11.0075V11.3383C7.80488 11.3684 7.74484 11.4286 7.74484 11.4887V11.8797C6.84428 11.8196 6.00375 11.4586 5.37336 10.8872L5.61351 10.6466C5.67355 10.5865 5.67355 10.5263 5.64353 10.4662L5.97373 10.1353C6.18387 10.2256 6.51407 10.1353 6.78424 9.86466C7.08443 9.56391 7.17449 9.14286 6.99437 8.96241C7.23452 9.20301 7.56473 9.35338 7.92495 9.35338C8.67542 9.35338 9.24578 8.75188 9.24578 8.03008C9.24578 7.2782 8.6454 6.70677 7.92495 6.70677C7.56473 6.70677 7.23452 6.85714 6.99437 7.09775C7.17449 6.91729 7.08443 6.49624 6.78424 6.19549C6.51407 5.92481 6.18387 5.83459 5.97373 5.92481L5.64353 5.59399C5.67355 5.53384 5.67355 5.44361 5.61351 5.41353L5.37336 5.17293C6.00375 4.6015 6.84428 4.2406 7.74484 4.18045V4.57143C7.74484 4.63158 7.80488 4.72181 7.86492 4.72181V5.05263C7.71482 5.14286 7.50469 5.29323 7.50469 5.35338V6.52632C7.50469 6.61654 7.56473 6.70677 7.65478 6.70677H7.71482V5.44361C7.71482 5.41353 7.74484 5.38346 7.80488 5.38346C7.86492 5.38346 7.89494 5.41353 7.89494 5.44361V6.67669H7.98499H8.07505V5.44361C8.07505 5.41353 8.10507 5.38346 8.1651 5.38346C8.22514 5.38346 8.25516 5.41353 8.25516 5.44361V6.67669H8.28518C8.37524 6.67669 8.46529 6.58647 8.46529 6.49624V5.32331C8.46529 5.26316 8.28518 5.11278 8.13508 5.02256V4.66165C8.19512 4.63158 8.25516 4.57143 8.25516 4.51128V4.1203C9.15572 4.18045 9.96623 4.54135 10.5966 5.08271L10.3565 5.32331C10.2964 5.38346 10.2964 5.44361 10.3265 5.50376L9.99625 5.83459C9.78612 5.74436 9.45591 5.83459 9.18574 6.10526C8.88555 6.40602 8.7955 6.82707 8.97561 7.00752C9.15572 7.18797 9.57599 7.09775 9.87617 6.79699C10.1463 6.52632 10.2364 6.19549 10.1463 5.98496L10.4765 5.65414C10.5366 5.68421 10.6266 5.68421 10.6567 5.62406L10.8968 5.38346C11.4672 6.01504 11.8274 6.82707 11.8874 7.72932H11.4972C11.4371 7.72932 11.3471 7.78947 11.3471 7.84963H10.9869C10.8968 7.72932 10.7467 7.5188 10.6867 7.5188H9.51595C9.42589 7.5188 9.33584 7.60902 9.33584 7.69925V7.72932H10.5366C10.5666 7.72932 10.5966 7.7594 10.5966 7.81955C10.5966 7.8797 10.5666 7.90978 10.5366 7.90978H9.33584V8.06015H10.5366C10.5666 8.06015 10.5966 8.09023 10.5966 8.15038C10.5966 8.21053 10.5666 8.2406 10.5366 8.2406H9.33584V8.30075C9.33584 8.39098 9.42589 8.45113 9.51595 8.45113H10.6867C10.7467 8.45113 10.8968 8.2406 10.9869 8.09023H11.3171C11.3471 8.15038 11.4071 8.21053 11.4672 8.21053H11.8574C11.8274 9.14286 11.4672 9.95489 10.8968 10.5865ZM7.14447 8C7.14447 7.54887 7.50469 7.1579 7.98499 7.1579C8.43527 7.1579 8.82552 7.5188 8.82552 8C8.82552 8.45113 8.46529 8.84211 7.98499 8.84211C7.53471 8.84211 7.14447 8.4812 7.14447 8ZM12.6679 8.21053C12.5478 8.21053 12.4578 8.1203 12.4578 8C12.4578 7.8797 12.5478 7.78947 12.6679 7.78947C12.788 7.78947 12.878 7.8797 12.878 8C12.878 8.1203 12.788 8.21053 12.6679 8.21053Z" fill="#FFD600"/>
</svg>
